<svg width="20" height="16" viewBox="0 0 20 16" fill="none" xmlns="http://www.w3.org/2000/svg">
<path fill-rule="evenodd" clip-rule="evenodd" d="M0 7.99986C0 8.19389 0.0830188 8.3792 0.221132 8.51873L7.69208 15.785C7.98717 16.072 8.4649 16.0713 8.75924 15.785C9.05434 15.4987 9.05434 15.0336 8.75924 14.7473L2.57585 8.73383L19.2453 8.73383C19.6619 8.73383 20 8.40536 20 7.99986C20 7.59437 19.6619 7.2659 19.2453 7.2659L2.5766 7.2659L8.75924 1.25247C9.05434 0.966146 9.05358 0.50106 8.75924 0.214741C8.46415 -0.071579 7.98641 -0.071579 7.69208 0.214741L0.221132 7.481C0.08 7.61835 0.00226415 7.80729 0 7.99986Z" fill="black"/>
</svg>
