<svg width="13" height="13" viewBox="0 0 13 13" fill="none" xmlns="http://www.w3.org/2000/svg">
<path d="M9.50625 0.24375C9.18125 -0.08125 8.69375 -0.08125 8.36875 0.24375L0.24375 8.36875C0.08125 8.53125 0 8.69375 0 8.9375V12.1875C0 12.675 0.325 13 0.8125 13H4.0625C4.30625 13 4.46875 12.9187 4.63125 12.7562L12.7562 4.63125C13.0813 4.30625 13.0813 3.81875 12.7562 3.49375L9.50625 0.24375ZM3.7375 11.375H1.625V9.2625L6.5 4.3875L8.6125 6.5L3.7375 11.375ZM9.75 5.3625L7.6375 3.25L8.9375 1.95L11.05 4.0625L9.75 5.3625Z" fill="#E95454"/>
</svg>
